# xmcd CD Database Entry
#
# Track frame offsets:
# 150
# 16597
# 33930
# 52319
# 67643
# 81790
# 100537
# 117588
# 132512
# 149889
# 166935
#
# Disc length: 2444 seconds
#
# Revision: 2
# Processed by: cddbd v1.4PL0 Copyright (c) Steve Scherf et al.
# Submitted via: tcd 2.0b
#
DISCID=91098a0b
DTITLE=Swift - Waging War
DYEAR=1900
DGENRE=
TTITLE0=Reset
TTITLE1=Lovesick
TTITLE2=The Guatemalan
TTITLE3=Breathless
TTITLE4=The Handshake
TTITLE5=Nurse
TTITLE6=Dr. Shaw
TTITLE7=Pretty Girl
TTITLE8=What Tears Are For
TTITLE9=Birds
TTITLE10=3 Fools
EXTD=
EXTT0=
EXTT1=
EXTT2=
EXTT3=
EXTT4=
EXTT5=
EXTT6=
EXTT7=
EXTT8=
EXTT9=
EXTT10=
PLAYORDER=
